<svg preserveAspectRatio="xMidYMid meet" data-bbox="3.25 2.319 393.851 57.5" viewBox="3.25 2.319 393.851 57.5" height="66.873" width="400" xmlns="http://www.w3.org/2000/svg" data-type="color" role="presentation" aria-hidden="true" aria-label="">
    <g>
        <path fill-rule="evenodd" fill="#e4e4e4" d="M228.65 2.656c-7.541 1.999-8.092 12.144-.794 14.613 1.143.387 3.889.804 4.339.66.122-.04.634-.112 1.138-.162 7.194-.704 9.904-9.223 4.334-13.619-2.069-1.632-6.022-2.286-9.017-1.492M37.201 11.125c-.37.344-1.371 1.262-2.226 2.042a380 380 0 0 0-5.303 4.947 624 624 0 0 1-4.582 4.303c-.984.916-2.142 2.004-2.572 2.416-.429.413-1.596 1.5-2.591 2.417s-2.159 2.004-2.586 2.417-1.635 1.537-2.684 2.499a149 149 0 0 0-2.671 2.5c-.421.413-1.576 1.501-2.567 2.417-3.615 3.343-4.341 4.017-5.246 4.872l-.923.872 16.769.003 16.769.003.481-.371c.265-.205.899-.786 1.409-1.292.511-.506 1.629-1.558 2.486-2.337s2.021-1.866 2.586-2.416c.566-.55 1.692-1.6 2.503-2.334a115 115 0 0 0 2.503-2.333c.566-.55 1.838-1.75 2.828-2.667s2.139-1.987 2.555-2.379a651 651 0 0 1 2.594-2.417 229 229 0 0 0 2.525-2.37c.379-.367 1.5-1.417 2.492-2.334.992-.916 2.189-2.041 2.659-2.5.471-.458 1.674-1.583 2.674-2.5 1-.916 2.379-2.21 3.066-2.875l1.247-1.208H37.875zm60.832-.425c-.29.291-.29 48.143 0 48.433.212.212 14.831.306 15.37.099.236-.09.264-1.076.264-9.416V40.5h13.666v9.217c0 6.946.05 9.266.2 9.416.288.288 15.146.288 15.434 0 .315-.315.288-48.186-.028-48.448-.164-.136-2.367-.176-7.875-.145l-7.647.043-.043 8.625-.044 8.625h-13.663v-8.466c0-6.363-.05-8.517-.2-8.667-.288-.288-15.146-.288-15.434 0m66.05 9.373c-3.268.485-6.077 1.51-8.64 3.152-2.875 1.842-4.845 4.136-6.53 7.601-2.228 4.584-2.491 12.111-.586 16.757 2.533 6.178 7.844 10.606 13.992 11.667.313.054.615.126.669.159.655.405 6.922.426 9.104.032 8.612-1.558 14.341-7.293 15.842-15.858.213-1.211.347-6.257.175-6.546-.04-.066-.122-.559-.184-1.094-.503-4.388-3.525-9.477-7.18-12.093-4.461-3.193-10.845-4.64-16.662-3.777m210.084-.063c-5.378.694-10.079 3.273-13.107 7.191-3.02 3.907-4.543 11.218-3.483 16.716.053.275.137.725.187 1 1.259 6.979 7.133 12.93 14.153 14.339 6.477 1.299 11.726.375 17.084-3.007 3.144-1.984 6.692-7.182 7.225-10.582.133-.85.299-.834-8.324-.834h-8.057l-.192.36c-1.789 3.342-6.291 2.256-6.918-1.669l-.111-.691h24.183l.127-.541c.422-1.8-.003-7.221-.748-9.542-2.859-8.902-11.775-14.06-22.019-12.74m-156.25.232c-3.363.641-7.242 3.026-9.436 5.802l-.64.81-.046-3.219-.045-3.218h-15.5V59.25h15.5l.096-8.833c.071-6.503.153-9.01.311-9.5 1.019-3.177 2.506-3.879 8.593-4.059l3.667-.108.043-8.292c.024-4.56.024-8.295 0-8.3-.635-.124-1.621-.092-2.543.084m135.666-.005c-3.341.582-6.956 2.782-9.544 5.81l-.539.631-.003-2.964c-.001-1.63-.062-3.059-.135-3.174-.105-.165-1.775-.201-7.79-.167l-7.655.044V59.25l7.713.043c6.083.035 7.728-.001 7.788-.166.041-.116.096-4.223.12-9.127l.045-8.917.468-.999c1.18-2.52 2.578-3.07 8.199-3.23l3.667-.104V20.083l-.584-.024c-.321-.014-1.108.067-1.75.178m-129.672.303c-.044.115-.061 8.872-.037 19.46l.043 19.25 7.416.046c4.079.026 7.586.005 7.793-.045l.375-.091-.042-19.372-.042-19.371-7.713-.044c-6.082-.034-7.73.001-7.793.167m19.832.001c-.044.116-.061 3.06-.037 6.543l.044 6.333 6.879.043 6.878.044-2.115 2.04a1975 1975 0 0 0-2.977 2.873c-.474.458-2.167 2.079-3.763 3.602a666 666 0 0 0-4.11 3.951l-1.209 1.181v5.891c0 4.36.052 5.943.2 6.091.29.29 32.644.29 32.934 0 .287-.287.287-12.479 0-12.766-.15-.15-2.115-.201-7.792-.205l-7.592-.004.75-.683c.413-.375 1.386-1.254 2.163-1.954.777-.699 1.646-1.496 1.931-1.771a97 97 0 0 1 1.919-1.75c.77-.687 1.557-1.4 1.749-1.583.191-.184.717-.666 1.168-1.073a321 321 0 0 0 2.706-2.491c1.037-.965 2.012-1.842 2.167-1.95.257-.18.274-.711.197-6.341l-.083-6.145-15.963-.043c-12.704-.034-15.98 0-16.044.167m36.598.033c-.42.506-.143 25.001.307 27.088.44 2.046 1.314 4.404 2.019 5.448.275.407.5.777.5.822 0 .312 2.227 2.582 3.249 3.311 1.18.842 3.834 2.06 3.834 1.759 0-.014.21.055.468.152 1.862.708 8.227.382 9.365-.479.092-.07.417-.211.722-.313.9-.303 2.836-1.677 4.057-2.879l1.138-1.12v2.222c0 1.221.046 2.34.101 2.485.133.345 15.189.407 15.532.063.315-.314.288-38.353-.027-38.614-.164-.136-2.367-.177-7.875-.146l-7.648.044-.089 11.166c-.076 9.453-.129 11.279-.346 11.896-1.383 3.94-7.305 4.205-9.09.406-.589-1.254-.566-.728-.558-12.363.006-7.826-.044-10.791-.183-10.959-.291-.35-15.185-.34-15.476.011M58.054 27.727a93 93 0 0 1-2.25 2.139c-.671.613-1.6 1.476-2.064 1.916-.463.441-1.774 1.664-2.911 2.718a385 385 0 0 0-2.68 2.5c-.336.321-1.35 1.271-2.255 2.112s-2.063 1.929-2.575 2.417c-.511.488-1.742 1.638-2.735 2.554-2.612 2.413-4.693 4.369-5.763 5.417a37 37 0 0 1-1.523 1.417c-.508.433-3.357 3.087-5.785 5.391a106 106 0 0 1-1.805 1.66c-.573.515-1.041.996-1.041 1.068s7.534.131 16.742.131h16.742l1.379-1.292c.759-.71 1.944-1.825 2.633-2.476 1.284-1.213 2.335-2.201 5.245-4.928.912-.855 1.895-1.779 2.184-2.054s1.38-1.288 2.425-2.25a315 315 0 0 0 5.398-5.084c.376-.366 1.503-1.416 2.503-2.333s2.46-2.271 3.242-3.011c.783-.739 1.945-1.826 2.584-2.416.638-.59 1.838-1.716 2.666-2.503 2.433-2.308 3.646-3.435 4.09-3.8l.417-.342L76 26.691l-16.917.014zm321.329 5.161a3.61 3.61 0 0 1 1.78 2.987c.002.069-1.879.125-4.181.125h-4.185l.114-.453c.702-2.799 3.954-4.135 6.472-2.659m-210.038 1.01c2.113.884 3.203 3.696 2.806 7.236-.631 5.626-7.069 6.938-8.719 1.776-1.792-5.608 1.621-10.809 5.913-9.012" data-color="1"></path>
        <path fill-rule="evenodd" fill="#e9ebec" d="M356.077 28.417c0 4.491.022 6.305.048 4.03s.026-5.95 0-8.167-.048-.355-.048 4.137M207.903 23.75c0 1.742.025 2.432.055 1.533s.03-2.324-.001-3.167c-.03-.843-.054-.108-.054 1.634m15.803 16.115c-.021 10.605.017 19.317.086 19.359.113.07.112-13.504-.002-31.724-.024-3.804-.062 1.76-.084 12.365m52.203-13.282c0 3.3.022 4.674.049 3.053a222 222 0 0 0 0-6c-.027-1.679-.049-.353-.049 2.947m51.838 13.25c0 10.588.02 14.919.045 9.625.024-5.293.024-13.956 0-19.25-.025-5.293-.045-.962-.045 9.625m-288.529.762-.468.429.542-.377c.298-.207.541-.4.541-.428 0-.132-.184-.019-.615.376m75.657.02c.16.042.423.042.583 0 .161-.042.029-.076-.291-.076-.321 0-.452.034-.292.076m1.5 0c.16.042.423.042.583 0 .161-.042.029-.076-.291-.076-.321 0-.452.034-.292.076m2.667 0c.16.042.423.042.583 0s.029-.076-.292-.076c-.32 0-.452.034-.291.076m1.5 0c.16.042.423.042.583 0s.029-.076-.292-.076c-.32 0-.452.034-.291.076m2.666 0c.161.042.423.042.584 0s.029-.076-.292-.076-.452.034-.292.076m1.5 0c.161.042.423.042.584 0s.029-.076-.292-.076-.452.034-.292.076m83.203 10.302c0 4.491.021 6.305.047 4.03s.026-5.95 0-8.167-.048-.355-.047 4.137m183.58 3.208-.574.625.625-.574c.581-.535.701-.676.574-.676-.028 0-.309.281-.625.625" data-color="2"></path>
    </g>
</svg>