<svg viewBox="293.725 130.558 3412.143 1240.6" preserveAspectRatio="xMidYMid meet" data-bbox="293.725 130.558 3412.143 1240.6" height="1500" width="4000" xmlns="http://www.w3.org/2000/svg" data-type="color" role="presentation" aria-hidden="true" aria-label="">
    <g>
        <path fill="#517591" d="M1823.566 130.602q3.007-.003 6.013-.009 6.28-.005 12.56.016c5.348.017 10.696.008 16.045-.01 4.134-.011 8.268-.008 12.403 0q2.956.003 5.914-.007c2.76-.008 5.521.004 8.282.02l2.433-.018c5.713.063 10.472 1.331 15.784 3.406v2l2.011.368c4.523.858 8.788 1.672 12.989 3.632v2l2.5.25c6.64 1.423 11.936 4.957 17.5 8.75l2.187 1.063c2.02 1.045 3.212 2.337 4.813 3.937.618.29 1.237.578 1.875.875 2.935 1.554 4.839 3.728 7.125 6.125 2.38 2.44 4.664 4.745 7.375 6.813 4.923 4.103 9.848 8.87 11.625 15.187h2l2.832 5.176c1.09 1.866 1.09 1.866 2.668 3.239 1.924 2.034 2.685 4.042 3.687 6.648l1.043 2.66C1986 205 1986 205 1986 207h2q1.01 2.621 2 5.25c.37.975.742 1.95 1.125 2.954C1992 218 1992 218 1992 222h2c5.263 18.982 9.018 36.776 9.125 56.563l.014 2.636-.007 2.493-.003 2.225c-.133 2.137-.545 4.028-1.13 6.083-2.312-.187-2.312-.187-5-1-1.5-2.25-1.5-2.25-3-5-3.103-3.348-6.433-6.164-10-9l-4-4c-5.808-5.242-11.878-10.652-19-14v-2c-3.621-1.491-7.275-2.787-11-4v-2l-2.062-.375C1945 250 1945 250 1941.625 249c-3.545-.977-6.98-1.553-10.625-2v-2c-18.205-.337-18.205-.337-36 3l-3.395.93c-16.662 4.608-30.925 12.081-45.605 21.07-6.659 4-6.659 4-9 4l-1 3c-2.661 1.994-5.613 4-9 4l-1 3c-1.926 1.5-1.926 1.5-4.313 3-2.361 1.5-4.647 2.97-6.855 4.688C1813 293 1813 293 1811 293l-.688 1.875c-1.701 2.755-3.366 2.947-6.312 4.125l-1 2c-1.39 2.78-3.187 2.875-6 4-1.092 1.934-1.092 1.934-2 4-3.429 3-3.429 3-6 3l-.758 1.774c-1.407 2.522-2.93 3.977-5.117 5.851l-2.055 1.79C1779 323 1779 323 1776.8 324.097c-2.393 1.2-2.642 2.517-3.8 4.902a142 142 0 0 1-5 5l-1.688 1.813C1765 337 1765 337 1763 337l-.766 1.762c-1.378 2.5-2.92 4.087-4.984 6.05-4.46 4.347-8.468 8.92-12.313 13.813-1.937 2.375-1.937 2.375-4.2 4.61-2.984 3.015-5.742 6.159-8.487 9.39l-1.583 1.859q-2.339 2.754-4.667 5.516l-2.57 3.043c-4.11 4.938-7.873 9.9-11.239 15.375L1711 400h-2l-.813 2.25c-1.14 2.641-2.281 4.606-4.187 6.75h-2l-1 5h-2l-.688 2c-1.7 3.887-3.709 7.637-6.312 11h-2l-.7 2.047c-1.638 3.72-3.81 6.868-6.113 10.203-3.303 4.858-6.443 9.697-9.152 14.918-1.035 1.832-1.035 1.832-2.59 3.899-1.64 2.195-2.518 4.366-3.445 6.933h-2l-.86 2.207a109 109 0 0 1-8.828 17.106c-3.792 6.162-6.749 12.737-9.798 19.288-1.994 4.275-4.016 8.39-6.514 12.4a333 333 0 0 0-2.11 4.968c-1.45 3.308-3.14 6.495-4.804 9.7-.988 2.121-1.614 4.047-2.086 6.331h-2l-.368 1.793c-.9 4.245-1.837 8.232-3.632 12.207h-2l-.25 2.75c-.777 5.624-2.868 10.92-4.75 16.25h-2l-.313 2.875c-.678 4.86-2.196 9.463-3.687 14.125h-2l-.313 2.75c-.967 6.703-2.442 13.439-5.187 19.637-1.623 3.908-2.37 7.268-3.125 11.426-1.266 6.97-1.266 6.97-2.375 9.187h-2l-.184 2.204-.254 3.046-.266 3.309a268 268 0 0 1-.656 6.664c-.94 8.132-.94 8.132 1.36 15.777 5.669 5.265 12.439 4.366 19.746 4.141l3.254-.14v-2l2.421-.665c7.177-2.072 13.627-4.639 20.215-8.164C1645 653 1645 653 1647 653v-2q1.934-1.006 3.875-2l2.18-1.125C1655 647 1655 647 1657 647v-2c1.836-1.261 1.836-1.261 4.375-2.687 3.736-2.162 7.3-4.429 10.812-6.938C1682.571 628 1682.571 628 1686 628v-2c1.539-1.148 1.539-1.148 3.625-2.375 2.641-1.578 5.224-3.18 7.75-4.937C1700 617 1700 617 1702 617l1-3c1.729-1.011 3.462-2.017 5.23-2.96 2.297-1.35 3.924-3.133 5.77-5.04a396 396 0 0 1 5-3 542 542 0 0 0 3-3 111 111 0 0 1 3.312-2.5c4.016-2.97 7.95-6.035 11.875-9.125l1.8-1.416 1.743-1.373 1.681-1.32a250 250 0 0 0 4.39-3.601C1749 579 1749 579 1751 579v-2a373 373 0 0 1 6-4 721 721 0 0 0 4-4c4.986-4.258 10.088-8.37 15.375-12.25 3.17-2.339 5.871-4.924 8.625-7.75 5.508-5 5.508-5 8-5l.687-1.812c1.672-2.786 3.518-3.563 6.313-5.188q2.505-2.494 5-5a264 264 0 0 1 5.375-4.437c7.494-5.967 7.494-5.967 14.504-12.48 3.02-2.965 6.35-5.481 9.683-8.083 2.301-1.888 4.354-3.878 6.438-6 1.922-1.733 3.878-3.423 5.836-5.117a330 330 0 0 0 4.39-3.89l2.149-1.93 1.96-1.777C1857 487 1857 487 1859 487l.664-1.718c1.76-3.006 3.973-4.639 6.71-6.782 3.417-2.688 6.588-5.392 9.626-8.5a251 251 0 0 1 3.75-3.312c1.034-.9 1.034-.9 2.09-1.816L1884 463q2.158-1.872 4.312-3.75l1.926-1.671a82 82 0 0 0 3.281-3.098c1.558-1.558 3.184-2.984 4.856-4.418 3.875-3.37 7.664-6.829 11.437-10.313l1.707-1.574c3.188-2.95 3.188-2.95 6.242-6.035 1.239-1.14 1.239-1.14 3.239-1.14v-2a742 742 0 0 1 6-4 142 142 0 0 0 5-5c4.774-4.904 9.9-9.332 15.082-13.794 3.216-2.785 6.333-5.584 9.293-8.644C1959 395 1959 395 1961 395l.777-1.796c1.339-2.413 2.672-3.695 4.785-5.454 3.942-3.322 7.757-6.76 11.555-10.246C1980 376 1980 376 1982 376l.75-1.875c1.477-2.512 2.69-2.886 5.25-4.125l1-3c1.671-1.648 1.671-1.648 3.75-3.375 2.415-2.045 4.695-4.07 6.937-6.312 2.312-2.312 4.755-4.28 7.313-6.313l1.875-1.875c2.294-2.294 4.706-4.372 7.183-6.464a222 222 0 0 0 4.102-3.602l2.152-1.934 1.988-1.804c1.7-1.32 1.7-1.32 3.7-1.32l.687-1.813c1.672-2.786 3.518-3.563 6.313-5.188a282 282 0 0 0 5-5c2.294-2.046 4.644-4.024 7-6l2.875-2.437q1.557-1.287 3.125-2.563l2.199-1.796 2.363-1.891 2.191-1.762c2.247-1.55 2.247-1.55 4.961-2.57L2067 302l1-3a116 116 0 0 1 6.5-4.75q1.937-1.348 3.87-2.7l1.903-1.325c2.153-1.528 4.226-3.141 6.29-4.788 5.61-4.43 11.53-8.417 17.437-12.438l2.656-1.836 2.344-1.601 2-1.371c2.253-1.343 4.545-2.275 7-3.192v-2c.542-.254 1.085-.507 1.644-.77.716-.343 1.431-.687 2.168-1.042l2.145-1.02c2.087-1.069 2.087-1.069 3.578-2.742C2129 256 2129 256 2132.625 255l3.375-1 1-3c5.222-3 5.222-3 8-3v-2a875 875 0 0 1 4.375-2c.812-.37 1.624-.742 2.46-1.125C2154 242 2154 242 2156 242l1-3c2.125-1.289 2.125-1.289 5-2.625 3.819-1.818 7.584-3.667 11.296-5.695l2.235-1.216q2.17-1.186 4.328-2.392c4.654-2.524 8.955-3.979 14.14-5.072v-2q2.654-1.007 5.313-2c.986-.37 1.972-.742 2.988-1.125 2.7-.875 2.7-.875 5.7-.875v-2l2.886-.988 3.801-1.324c1.241-.43 2.483-.859 3.762-1.3 3.478-1.241 3.478-1.241 6.14-2.962 2.75-1.626 5.172-2.246 8.286-2.926 3.345-.733 6.204-1.536 9.328-2.964 4.693-2.09 9.631-2.767 14.672-3.598q2.84-.484 5.68-.973l2.796-.479c2.4-.44 4.763-.952 7.137-1.509 5.23-1.195 10.506-1.87 15.824-2.54l3.061-.393c6.2-.784 12.377-1.45 18.615-1.833 2.08-.099 2.08-.099 4.012-1.21 2.819-.251 5.611-.433 8.437-.563l2.728-.127c20.688-.831 42.24-1.634 62.835.69l1 1c2.521.332 5.033.616 7.562.874 10.838 1.198 21.895 2.543 32.18 6.317 2.825 1.012 5.691 1.836 8.57 2.683 5.57 1.696 10.886 3.762 16.227 6.075 2.522 1.116 2.522 1.116 5.46 2.05v2l2.626.313c3.541.721 6.218 1.959 9.375 3.687v2c1.093.29 2.186.578 3.312.875C2478 218 2478 218 2481 220v2l2.652.762c7.47 2.764 13.978 8.444 19.348 14.238l1.976 1.918c5.773 5.605 11.428 11.455 16.024 18.082v3h2c1.349 1.927 2.603 3.92 3.812 5.938l1.079 1.8A887 887 0 0 1 2531 273l1.53 2.551c4.851 8.326 6.782 16.293 8.04 25.824.154 2.545.154 2.545 1.43 3.625.226 1.558.394 3.124.535 4.692l.263 2.861.264 3.01.275 3.021q.337 3.708.663 7.416l2-1v48l-2-1-.168 2.004q-.379 4.467-.77 8.934l-.264 3.154-.263 2.998-.238 2.777C2542 394 2542 394 2541 395a291 291 0 0 0-1.438 8.375l-.809 4.957-1.289 7.993c-.841 4.956-1.985 9.552-3.68 14.285-1.237 3.768-2.07 7.629-2.94 11.496-.935 3.206-2.345 5.915-3.844 8.894a178 178 0 0 0-2.188 6.875l-1.043 3.493c-.38 1.303-.38 1.303-.77 2.632h-2c-.12.592-.242 1.184-.367 1.793-.9 4.245-1.837 8.232-3.632 12.207h-2l-.688 3.938c-.978 4.44-2.693 7.83-5.004 11.71-2.192 3.94-3.733 8.137-5.308 12.352h-2l-.551 1.934-.762 2.504-.738 2.496-.95 2.066-3 1q-.514 1.996-1 4a116 116 0 0 1-2.714 4.13c-1.55 2.255-3.01 4.558-4.473 6.87l-1.805 2.832a1041 1041 0 0 0-4.39 6.993l-2.43 3.863-1.167 1.893c-.953 1.508-1.98 2.969-3.02 4.42h-2l-.813 2.124c-3.31 8.016-3.31 8.016-5.96 10.614-2.853 2.897-5.116 6.086-7.477 9.386-5.852 8.077-11.934 15.91-18.524 23.403-1.434 1.668-1.434 1.668-3.226 4.472h-2l-.313 1.813c-.786 2.5-1.657 3.563-3.687 5.187h-2l-.762 1.692c-3.942 7.35-10.26 14.203-16.8 19.308-2.583 2.12-4.387 4.372-6.438 7-6.796 7.195-14.458 13.605-22 20l-3.5 3-1.754 1.5a512 512 0 0 0-3.461 3c-6.663 5.802-13.78 10.87-21.035 15.903a95 95 0 0 0-4.938 3.785c-2.27 1.779-4.606 3.174-7.129 4.562-2.763 1.582-5.43 3.298-8.12 5-6.88 4.256-14.005 7.851-21.277 11.38-2.38 1.16-4.739 2.36-7.099 3.558q-2.34 1.163-4.687 2.312l-2.664 1.309c-5.458 2.59-10.751 4.529-16.633 5.918-2.853.745-2.853.745-5.977 2.258-4.087 1.806-8.206 2.474-12.601 3.14-4.963.368-4.963.368-9.125 2.375-15.885 4.308-38.147 6.315-53.622-.187-3.161-1.08-6.34-1.599-9.628-2.188-7.084-1.34-13.231-3.603-19.75-6.625l-3.5-1.5-3.5-1.5a5049 5049 0 0 0-12-5v-2l-1.625-.312c-3-.868-5.613-2.244-8.375-3.688v-2l-2.25-.875A82 82 0 0 1 2132 696v-2l-1.625-.75c-5.514-2.902-10.105-6.586-14.625-10.812l-1.704-1.587c-7.87-7.419-15.858-15.255-21.046-24.85v-2l-3-1c-1.886-3.213-3-5.247-3-9h-2c-11-21.215-11-21.215-11-31h-2c-2.05-7.783-3.492-14.935-3-23h4v2l1.941.367c6.38 1.236 12.525 2.592 18.559 5.07 5.015 1.942 10.246 2.77 15.523 3.719 3.037.585 5.924 1.427 8.871 2.363 4.807 1.472 9.417 2.243 14.418 2.668l2.752.24c35.565 2.661 71.65 1.573 104.88-12.624 2.64-1.032 5.243-1.507 8.056-1.804v-2q3.184-1.255 6.375-2.5l3.586-1.406C2261 585 2261 585 2263 585v-2l2.082-1.023 2.73-1.352c1.34-.66 1.34-.66 2.707-1.336 2.626-1.307 2.626-1.307 5.48-3.289 4.616-3 4.616-3 8-3v-2c5.412-4 5.412-4 8-4v-2c1.505-1.332 1.505-1.332 3.563-2.812l2.207-1.606q2.085-1.48 4.18-2.945c3.341-2.34 6.2-4.699 9.05-7.637a469 469 0 0 1 3.938-3.437c4.163-3.623 8.024-7.316 11.563-11.563 2.365-2.839 4.889-5.389 7.5-8l2-3h2l.78-1.714c1.348-2.527 2.934-4.612 4.72-6.848 1.943-2.442 3.766-4.837 5.5-7.438h2l.75-2.875c1.443-3.608 1.987-3.546 5.25-5.125.368-1.659.696-3.327 1-5a118 118 0 0 1 4-6c6.644-9.763 12.096-20.19 17.669-30.587a153 153 0 0 1 2.931-5.068c1.408-2.358 2.418-4.658 3.4-7.22a262 262 0 0 1 3.562-8.75c1.599-3.753 3.044-7.541 4.438-11.375l1.062-2.812c1.154-3.923 1.814-7.863 2.473-11.895C2398 409 2398 409 2399 408c1.603-7.678 2.186-15.302 2.187-23.125l.002-2.187c-.035-3.39-.269-6.43-1.19-9.688a195 195 0 0 1 0-7h-2l-.515-2.16c-2.388-9.435-5.956-15.43-12.094-22.922C2384 339 2384 339 2384 337l-1.813-.875C2380 335 2380 335 2377 333v-2l-2.188-.875L2367 327v-2l-2.618-.355c-3.409-.65-6.286-1.679-9.507-2.957-8.378-3.07-16.9-4.712-25.666-6.28-1.8-.332-3.593-.71-5.381-1.099-8.634-1.784-24.726-4.36-32.828-.309-1.683.212-3.366.42-5.052.595-12.8 1.343-24.836 4.068-36.593 9.452C2247 325 2247 325 2244 325v2l-1.582.63c-6.619 2.77-12.471 6.378-18.418 10.37l-2.079 1.387c-2.815 1.94-5.25 3.942-7.671 6.363C2212 348 2212 348 2209 349l-1 3c-1.567 1.579-1.567 1.579-3.563 3.25l-2.191 1.86L2200 359q-2.005 1.745-4 3.5a1220 1220 0 0 1-6.106 5.32c-3.774 3.272-7.407 6.599-10.894 10.18a102.5 102.5 0 0 1-10 9q-1.532 1.47-3 3c-4.41 4.543-9.164 8.501-14.063 12.5-2.987 2.466-2.987 2.466-5.687 5.313C2144 410 2144 410 2142 410l-1 3a174 174 0 0 1-5 4q-2.506 2.495-5 5a639 639 0 0 1-5.813 5.375l-1.597 1.46a591 591 0 0 1-10.653 9.482c-6.894 5.967-6.894 5.967-13.5 12.246-2.751 2.751-5.657 5.27-8.598 7.816A84 84 0 0 0 2087 462c-1.912 1.913-3.893 3.668-5.937 5.438-2.269 1.968-4.436 3.937-6.562 6.062-3.348 3.348-6.926 6.4-10.5 9.5-6.097 5.3-6.097 5.3-11.875 10.938C2050 496 2050 496 2047 497l-1 3c-1.707 1.754-1.707 1.754-3.813 3.563l-2.082 1.816C2038 507 2038 507 2035.8 508.028c-2.156.9-2.156.9-2.8 3.972-1.426 1.438-1.426 1.438-3.313 3-4.237 3.587-8.32 7.314-12.386 11.092-3.004 2.775-6.101 5.366-9.301 7.908l-2.313 2.313A125 125 0 0 1 1999 542.5c-2.25 1.948-4.394 3.894-6.5 6-4.004 4.004-8.334 7.63-12.618 11.329-2.873 2.494-5.69 4.98-8.382 7.671-3.93 3.93-8.157 7.515-12.395 11.106-2.584 2.19-5.083 4.372-7.48 6.77-2.31 2.309-4.676 4.466-7.125 6.624-2.427 2.139-4.775 4.275-7.063 6.563-2.723 2.723-5.597 5.213-8.512 7.726a81 81 0 0 0-4.738 4.586C1922 613 1922 613 1919 614l-1 3c-1.707 1.754-1.707 1.754-3.813 3.563-1.03.9-1.03.9-2.082 1.816C1910 624 1910 624 1907.8 625.028c-2.156.9-2.156.9-2.8 3.972-1.672 1.649-1.672 1.649-3.75 3.375-2.44 2.065-4.736 4.111-7 6.375-1.994 1.994-3.895 3.707-6.25 5.25h-2l-.688 1.688c-2.943 5.185-7.46 8.077-12.312 11.312a282 282 0 0 0-5 5 384 384 0 0 1-4 3.5c-2.227 1.928-4.354 3.854-6.438 5.938-3.02 3.02-6.207 5.81-9.414 8.629a93 93 0 0 0-5.023 4.87C1841 687 1841 687 1838 688l-1 3c-1.672 1.649-1.672 1.649-3.75 3.375-2.345 1.987-4.575 3.95-6.75 6.125-2.748 2.748-5.645 5.26-8.582 7.801-1.587 1.406-3.107 2.888-4.606 4.387-2.311 2.311-4.75 4.289-7.312 6.312q-1.503 1.5-3 3a313 313 0 0 1-3.625 3.188c-8.136 7.007-8.136 7.007-15.938 14.375-2.723 2.723-5.597 5.213-8.512 7.726a81 81 0 0 0-4.738 4.586C1768 754 1768 754 1765 755l-1 3c-1.461 1.508-1.461 1.508-3.375 3.125l-2.164 1.84q-5.443 4.499-10.946 8.922c-2.306 1.938-4.407 3.965-6.515 6.113a288 288 0 0 1-6 5l-2.258 1.852a244 244 0 0 1-15.559 11.621c-2.484 1.738-4.823 3.626-7.183 5.527-4.218 2.972-8.586 5.454-13.145 7.852-2.01 1.02-2.01 1.02-2.855 3.148-2.28 1.123-4.614 2.046-6.97 3-2.196.828-2.196.828-3.03 3-2.556.848-5.138 1.472-7.75 2.122L1674 822l-1 3c-2.407 1.247-2.407 1.247-5.5 2.438l-3.329 1.312L1661 830a321 321 0 0 0-4.25 1.938c-10.055 4.481-20.17 8.257-30.98 10.422-2.743.55-2.743.55-5.085 1.627-2.86 1.08-5.392 1.508-8.424 1.865l-3.232.39-3.342.383-3.4.407q-4.143.493-8.287.968v6h-21v-6l-3.368-.332c-7.3-.761-14.322-1.522-21.308-3.882-2.604-.88-5.23-1.585-7.887-2.286-13.787-3.749-13.787-3.749-18.437-7.5a123 123 0 0 0-3.625-1.812c-7.7-3.77-14.662-8.23-21.344-13.594-2.18-1.758-2.18-1.758-5.281-3.719-2.977-2.029-5.27-4.268-7.75-6.875l-2.352-2.34c-19.38-19.465-19.38-19.465-22.648-30.66h-2a742 742 0 0 1-2-4.812l-1.125-2.707C1453 765 1453 765 1453 762h-2a1516 1516 0 0 1-2.5-8.188l-.723-2.33c-1.18-3.926-2.11-7.333-1.777-11.483h-2q-.723-3.749-1.438-7.5l-.408-2.109-.4-2.11-.365-1.904c-1.401-8.562-1.553-16.914-1.557-25.584l-.01-4.47q-.009-4.68-.008-9.362 0-4.744-.02-9.487c-.09-20.782.358-40.967 4.206-61.474h2l.078-2.14c.401-7.266 1.436-14.23 2.86-21.36l.514-2.606c.862-4.185 1.948-7.928 3.548-11.894.795-3.085 1.46-6.196 2.125-9.312l.55-2.533q.668-3.076 1.325-6.155h2l.332-2.054A132.5 132.5 0 0 1 1464 539h2l.312-3.375c.617-5.06 2.113-9.79 3.688-14.625h2l.402-2.265.535-2.985.527-2.953c.972-5.08.972-5.08 1.536-6.797l2-1c.699-2.165 1.31-4.358 1.875-6.562 1.335-4.912 2.8-9.234 5.242-13.684 1.415-2.811 2.121-5.707 2.883-8.754h2l.37-2.175c1.158-5.197 3.513-9.957 5.63-14.825l.888-2.055c3.945-9.1 8.065-18.076 12.585-26.906 1.36-2.661 2.58-5.198 3.527-8.039h2l1-6h2l1-6h2l.742-2.476c1.483-4.155 3.376-7.977 5.383-11.899l1.129-2.23q1.368-2.7 2.746-5.395h2l.226-1.992c1.059-4.117 3.038-7.465 5.149-11.133l1.21-2.168c1.901-3.344 3.671-5.999 6.415-8.707 1.1-2.161 1.1-2.161 2-4.5 1.288-3.22 2.53-5.1 5-7.5a75 75 0 0 0 2.312-4.125c2.201-4.083 4.656-7.896 7.27-11.726 1.325-2.008 2.51-4.041 3.668-6.149 1.75-3 1.75-3 3.75-4a180 180 0 0 0 2-4c2.694-4.234 5.648-8.212 8.73-12.168 1.452-1.912 1.452-1.912 2.27-4.832a100 100 0 0 1 3-3c3.679-4.1 3.679-4.1 6-9l1.71-1.703c3.645-3.657 6.437-7.943 9.399-12.16 1.25-1.746 2.566-3.446 3.89-5.137h2l.626-2.062c2.342-5.004 5.79-8.88 10.375-11.938l1-3a523 523 0 0 1 5-4l2.187-2.75L1629 248h2l.187-1.75c1.137-3.148 3.182-4.23 5.813-6.25a263 263 0 0 0 4-5c4.363-4.69 4.363-4.69 7.187-6.062 1.992-.805 1.992-.805 2.813-2.938 1.258-2.516 2.53-2.804 5-4l1-3c1.566-1.578 1.566-1.578 3.562-3.25l2.188-1.855L1665 212a1233 1233 0 0 0 4.062-3.562L1673 205l1.707-1.492c3.486-3.02 7.032-5.966 10.605-8.883l2.55-2.085C1690 191 1690 191 1692 191v-2c2.046-1.62 2.046-1.62 4.75-3.437 3.788-2.558 3.788-2.558 7.453-5.285C1706 179 1706 179 1708 179v-2c6.75-4 6.75-4 9-4v-2l1.793-.988c5.04-2.787 10.015-5.636 14.894-8.7C1736 160 1736 160 1738 160v-2c3.1-1.509 6.205-3.005 9.312-4.5l2.67-1.3 2.568-1.23 2.365-1.143C1757 149 1757 149 1760 149v-2l2.02-.699c4.961-1.756 9.744-3.623 14.48-5.926 5.373-2.52 10.638-3.615 16.5-4.375v-2c9.99-3.967 19.987-3.436 30.566-3.398" data-color="1"></path>
        <path fill="#000000" d="m986.625 930.688 3.085.007c14.613.05 28.935.314 43.29 3.305.99.2 1.982.398 3.002.603 48.652 9.993 89.578 35.607 117.24 77.124 18.708 28.697 29.077 61.49 33.758 95.274l.355 2.43c8.76 62.682-.45 136.932-39.355 188.57-5.31 6.99-11.028 13.569-17 20l-1.633 1.796c-32.907 34.727-84.415 49.856-130.876 51.314-56.747.915-111.775-11.457-153.629-51.846-36.166-35.658-54.27-83.357-59.862-133.264l-.29-2.511c-1.044-10.464-.954-20.984-.96-31.49l-.002-3.096c.017-16.478.615-32.605 3.252-48.903l.472-2.997c7.858-47.743 31.077-96.496 70.528-126.003l1.612-1.218c22.802-17.124 48.32-28.417 76.138-34.595l2.645-.59c16.035-3.35 31.9-3.972 48.23-3.91m-75.285 108.734c-17.435 19.21-25.463 45.434-29.34 70.579l-.537 3.32c-1.622 11.182-1.802 22.27-1.779 33.558.003 3.155-.02 6.309-.045 9.463-.123 39.329 7.721 81.026 35.884 110.28 18.544 17.863 43.629 25.002 68.904 24.77 2.073-.017 4.144 0 6.218.019 26.165.043 49.972-8.668 68.953-26.907 24.984-25.988 33.44-65.949 33.605-100.953l.017-2.953q.014-3.085.02-6.169c.01-3.063.04-6.125.072-9.188.2-37.092-6.88-77.647-32.312-106.24l-2.012-2.297c-16.184-17.352-40.235-25.696-63.549-26.828-32.242-.948-60.915 5.684-84.1 29.546" data-color="2"></path>
        <path fill="#000000" d="m1339.448 940.74 2.03-.012c2.257-.01 4.514-.006 6.771-.002l4.845-.015c4.405-.014 8.81-.014 13.214-.012q5.542 0 11.086-.008a13394 13394 0 0 1 26.259-.006q13.431.007 26.862-.028 11.591-.025 23.183-.02c4.596.002 9.192 0 13.788-.015 50.991-.143 103.695 3.171 144.514 37.379l2.574 2.011c21.924 17.97 31.6 47.435 34.724 74.576 3.143 33.175-2.271 69.437-22.985 96.413-11.062 13.249-23.542 23.137-38.313 32 1.675 5.647 4.184 10.781 6.75 16.062l1.54 3.189c6.457 13.343 12.988 26.65 19.506 39.965a5865 5865 0 0 1 16.936 34.872c4.206 8.732 8.45 17.445 12.703 26.154q2.606 5.337 5.205 10.677c5.256 10.8 5.256 10.8 10.596 21.558q1.45 2.899 2.887 5.803a665 665 0 0 0 3.448 6.853l1.484 3.011 1.296 2.574c.65 2.282.65 2.282-1.35 6.282h-98a25418 25418 0 0 1-27.223-59.7q-3.84-8.448-7.711-16.882c-7.636-16.646-15.184-33.325-22.576-50.08l-.956-2.161q-1.264-2.862-2.525-5.725c-2.94-6.513-5.988-12.977-9.01-19.452l-78-1 .035 33.652.014 21.041q.007 16.717.027 33.435.015 12.174.018 24.347.002 6.45.012 12.899.01 6.063.007 12.127 0 2.232.006 4.464.006 3.033.001 6.068l.003 3.439C1423 1359 1423 1359 1422 1360a127 127 0 0 1-6.11.316l-1.982.063q-3.328.1-6.658.183l-2.318.062c-14.646.382-29.294.51-43.944.552q-3.618.01-7.235.032c-3.41.018-6.82.022-10.23.022l-3.135.022-2.867-.01-2.51.005C1333 1361 1333 1361 1331 1359c-.251-2.914-.251-2.914-.252-6.738l-.01-2.133c-.007-2.383 0-4.766.007-7.15q-.003-2.574-.01-5.148c-.008-4.735-.003-9.47.003-14.204.004-5.099-.003-10.198-.008-15.297-.01-9.996-.007-19.992-.001-29.988a29577 29577 0 0 0 0-34.888q-.007-32.997.011-65.995.014-28.342-.002-56.684a85576 85576 0 0 1-.006-72.756v-3.482q.003-12.173-.005-24.345-.01-14.826.006-29.651.009-7.57 0-15.142-.008-6.92.009-13.84.003-2.514-.004-5.028c-.006-2.265 0-4.53.01-6.794v-3.824c.496-5.756 3.747-5.166 8.699-5.174M1423 1018v110l37.313.188 11.657.083c3.535.01 3.535.01 7.07.016q2.31.008 4.62.03c20.199.193 42.353-1.264 58.258-15.191 11.018-11.246 13.714-25.906 14.082-41.125-.246-14.836-4.198-28.365-15-39-17.096-13.656-38.503-15.503-59.504-15.293q-2.267.006-4.535.009c-5.508.015-11.015.057-16.523.096z" data-color="2"></path>
        <path fill="#000000" d="m2950.448 939.74 2.03-.012c2.257-.01 4.514-.006 6.771-.002l4.845-.015c4.405-.014 8.81-.014 13.214-.012q5.542 0 11.086-.008a13394 13394 0 0 1 26.259-.006q13.431.007 26.862-.028 11.591-.025 23.183-.02c4.596.002 9.192 0 13.788-.015 50.991-.143 103.695 3.171 144.514 37.379l2.574 2.011c21.924 17.97 31.6 47.435 34.724 74.576 3.143 33.175-2.271 69.437-22.985 96.413-11.062 13.249-23.542 23.137-38.313 32 1.675 5.647 4.184 10.781 6.75 16.062l1.54 3.189c6.457 13.343 12.988 26.65 19.506 39.965a5865 5865 0 0 1 16.936 34.872c4.206 8.732 8.45 17.445 12.703 26.154q2.606 5.337 5.205 10.677c5.256 10.8 5.256 10.8 10.596 21.558q1.45 2.899 2.887 5.803a665 665 0 0 0 3.448 6.853l1.484 3.011 1.296 2.574c.65 2.282.65 2.282-1.35 6.282h-98a25418 25418 0 0 1-27.223-59.7q-3.84-8.448-7.711-16.882c-7.636-16.646-15.184-33.325-22.576-50.08l-.956-2.161q-1.264-2.862-2.525-5.725c-2.94-6.513-5.988-12.977-9.01-19.452l-78-1 .035 33.652.014 21.041q.007 16.717.027 33.435.015 12.174.018 24.347.002 6.45.012 12.899.01 6.063.007 12.127 0 2.232.006 4.464.006 3.033.001 6.068l.003 3.439C3034 1358 3034 1358 3033 1359a127 127 0 0 1-6.11.316l-1.982.063q-3.328.1-6.658.183l-2.318.062c-14.646.382-29.294.51-43.944.552q-3.618.01-7.235.032c-3.41.018-6.82.022-10.23.022l-3.135.022-2.867-.01-2.51.005C2944 1360 2944 1360 2942 1358c-.251-2.914-.251-2.914-.252-6.738l-.01-2.133c-.007-2.383 0-4.766.007-7.15q-.003-2.574-.01-5.148c-.008-4.735-.003-9.47.003-14.204.004-5.099-.003-10.198-.008-15.297-.01-9.996-.007-19.992-.001-29.988a29577 29577 0 0 0 0-34.888q-.007-32.997.011-65.995.014-28.342-.002-56.684a85576 85576 0 0 1-.006-72.756v-3.482q.003-12.173-.005-24.345-.01-14.826.006-29.651.009-7.57 0-15.142-.008-6.92.009-13.84.002-2.514-.004-5.028-.007-3.398.01-6.794v-3.824c.496-5.756 3.747-5.166 8.699-5.174M3034 1017v110l37.313.188 11.657.083c3.535.01 3.535.01 7.07.016q2.31.008 4.62.03c20.199.193 42.353-1.264 58.258-15.191 11.018-11.246 13.714-25.906 14.082-41.125-.246-14.836-4.198-28.365-15-39-17.096-13.656-38.503-15.503-59.504-15.293q-2.267.006-4.535.009c-5.508.015-11.015.057-16.523.096z" data-color="2"></path>
        <path fill="#000000" d="m301.875 940.729 2.49.012 2.622-.01c2.87-.01 5.738-.003 8.607.003q2.982-.001 5.963-.005 6.255-.004 12.51.01c5.353.012 10.706.005 16.06-.007q6.16-.009 12.317 0 2.963.003 5.924-.005c2.756-.005 5.511.003 8.267.014l2.49-.012c5.647.043 5.647.043 7.875 2.271.246 2.714.246 2.714.24 6.239.003.645.004 1.29.006 1.955.003 2.18-.008 4.358-.019 6.537l.001 4.747c0 4.247-.011 8.494-.025 12.741-.011 3.982-.012 7.963-.013 11.945-.011 11.654-.039 23.307-.065 34.961-.04 26.029-.082 52.058-.125 78.875h162c-.408-51.908-.408-51.908-.838-103.816-.073-10.02-.073-10.02-.104-14.705q-.034-4.928-.083-9.855-.059-6.276-.094-12.552-.015-2.308-.042-4.618a832 832 0 0 1-.041-6.215l-.028-3.525C548 943 548 943 550 941a113 113 0 0 1 8.473-.243l2.656-.006c2.907-.003 5.813.007 8.719.019l6.038.001q6.33.003 12.662.023c5.424.017 10.847.021 16.27.02q6.235.001 12.469.013 3 .005 6.001.006 4.185.004 8.369.022l2.53-.002c5.699.033 5.699.033 6.813 1.147.103 1.713.134 3.43.139 5.147.005 1.123.01 2.246.017 3.403l.003 3.788.015 3.99q.018 5.51.027 11.022.014 5.94.035 11.88.036 11.682.061 23.363.033 13.71.075 27.421.07 24.61.131 49.222.058 23.614.125 47.23l.008 2.903.033 11.571a314691 314691 0 0 1 .162 59.133c.053 19.402.101 38.804.134 58.206q.026 15.933.086 31.864.042 11.325.065 22.65.014 6.76.046 13.523.03 6.262.035 12.526.005 2.303.02 4.604c.014 2.091.015 4.182.013 6.273l.012 3.55C642 1358 642 1358 640 1360c-2.856.194-5.615.262-8.473.243l-2.656.006c-2.906.003-5.812-.007-8.718-.018q-3.019-.003-6.038-.002-6.332-.003-12.663-.023c-5.423-.017-10.846-.02-16.27-.02q-6.234-.001-12.468-.013-3-.005-6.001-.006-4.185-.004-8.37-.022l-2.529.002c-5.7-.032-5.7-.032-6.814-1.147a151 151 0 0 1-.12-6.688l-.003-2.143q0-3.582.01-7.163v-5.114q0-6.964.012-13.927.008-7.269.008-14.538.005-13.776.021-27.55c.014-12.405.019-24.81.025-37.214.01-19.555.03-39.109.047-58.663H387l.035 37.809q.009 11.82.014 23.638.007 18.783.027 37.564.015 13.676.018 27.352.002 7.247.012 14.492.01 6.813.007 13.624 0 2.508.007 5.016.005 3.409 0 6.817l.003 3.863C387 1359 387 1359 386 1360c-2.19.162-4.386.252-6.582.316l-2.125.064q-3.553.099-7.105.183l-2.467.062c-14.811.364-29.624.508-44.44.551q-3.534.012-7.07.032c-3.325.018-6.65.022-9.976.023l-3.05.021-2.787-.009-2.439.004C296 1361 296 1361 294 1359c-.25-2.913-.25-2.913-.251-6.737l-.01-2.134c-.007-2.383 0-4.766.007-7.149q-.003-2.574-.01-5.149c-.007-4.734-.003-9.469.003-14.204.004-5.099-.003-10.197-.008-15.296q-.012-14.994-.001-29.989.006-12.18.003-24.362l-.001-3.496-.002-7.03q-.007-32.997.011-65.994.014-28.342-.001-56.685a85576 85576 0 0 1-.007-72.755v-3.482q.003-12.172-.005-24.346-.009-14.826.006-29.65.01-7.572.001-15.142-.009-6.921.008-13.842.003-2.512-.004-5.026-.007-3.398.01-6.795v-3.823c.473-5.488 3.288-5.149 8.126-5.185" data-color="2"></path>
        <path fill="#000000" d="m3407.738 939.748 3.048-.016 3.374.014 3.565-.01q4.912-.008 9.826.002c3.528.005 7.057-.002 10.585-.008q10.374-.012 20.748 0 8.428.005 16.856.002h2.42l4.865-.003c15.223-.006 30.445.001 45.668.012q19.61.013 39.219-.002a40978 40978 0 0 1 52.757-.006q8.423.002 16.844-.006 10.258-.01 20.516.007 5.237.009 10.475 0c3.778-.005 7.557.002 11.335.012l3.374-.014 3.048.016 2.646.001c2.093.25 2.093.25 4.093 2.25.198 2.399.273 4.682.258 7.08l.011 2.209c.009 2.414.003 4.828-.004 7.243l.006 5.022q.004 5.265-.01 10.531c-.012 4.506-.005 9.012.007 13.519q.009 5.185 0 10.371-.002 2.493.004 4.986.006 3.48-.014 6.96l.013 2.093c-.043 4.758-.043 4.758-2.271 6.987a93 93 0 0 1-7.72.24l-2.443.005c-2.716.004-5.432-.007-8.148-.018h-5.824q-7.924 0-15.848-.025c-5.516-.012-11.032-.013-16.548-.016q-15.677-.01-31.354-.042c-11.896-.023-23.791-.034-35.687-.044-24.476-.02-48.952-.057-73.428-.1v85l40.652-.035q12.708-.009 25.416-.014a70426 70426 0 0 0 40.388-.027q14.704-.015 29.41-.018 7.79-.002 15.582-.012 7.323-.01 14.648-.007 2.696 0 5.393-.007 3.664-.005 7.33 0l2.183-.01c4.884.016 4.884.016 5.998 1.13a159 159 0 0 1 .145 7.15l.01 2.266q.013 3.727.013 7.455l.01 5.16q.009 5.416.007 10.832c0 4.635.014 9.27.03 13.906q.016 5.331.013 10.662.003 2.564.014 5.128c.01 2.387.007 4.774 0 7.161l.018 2.155c-.032 4.896-.032 4.896-2.26 7.125-2.46.193-4.805.26-7.264.24l-2.295.005c-2.55.004-5.1-.007-7.65-.018h-5.47q-7.44 0-14.881-.025c-5.18-.012-10.36-.013-15.539-.016q-14.72-.01-29.441-.042c-13.258-.027-26.515-.038-39.773-.05-20.896-.018-41.791-.058-62.687-.094v97l45.867-.106q14.341-.024 28.683-.04c15.193-.019 30.385-.04 45.577-.08q16.594-.046 33.188-.057 8.79-.004 17.582-.035 8.265-.029 16.532-.022 3.042 0 6.083-.018c2.759-.015 5.516-.011 8.275-.003l2.458-.027c2.229.019 2.229.019 5.755.388 2.488 3.731 1.958 6.01 1.4 10.225l-.265 2.218c-.292 2.42-.6 4.838-.909 7.256l-.614 5.032a3468 3468 0 0 1-1.647 13.242c-.565 4.503-1.116 9.008-1.668 13.513A9853 9853 0 0 1 3697 1359a963607 963607 0 0 1-102.197.436l-33.93.145q-17.524.076-35.05.15l-19.587.083q-19.813.088-39.625.15-11.046.034-22.09.099-7.473.038-14.944.061-3.547.015-7.093.04-4.866.03-9.73.039l-2.925.029-2.656-.002-2.31.012C3403 1360 3403 1360 3401 1358c-.251-2.914-.251-2.914-.252-6.738l-.009-2.133c-.007-2.383 0-4.766.007-7.15l-.01-5.148c-.008-4.735-.004-9.47.002-14.204.005-5.099-.002-10.198-.008-15.297q-.012-14.994 0-29.988.005-12.18.002-24.362v-3.496l-.003-7.03c-.006-21.998.001-43.996.012-65.995q.013-28.342-.002-56.684a85576 85576 0 0 1-.007-72.756l.001-3.482q.002-12.173-.006-24.345-.008-14.826.007-29.651.009-7.57 0-15.142-.008-6.92.008-13.84.004-2.514-.003-5.028c-.006-2.265 0-4.53.009-6.794l.001-3.824c.427-4.964 2.548-5.163 6.989-5.165" data-color="2"></path>
        <path fill="#000000" d="m2458.875 939.729 2.49.012 2.622-.01c2.87-.01 5.738-.003 8.607.003q2.982-.001 5.963-.005 6.255-.004 12.51.01c5.353.012 10.706.005 16.06-.007q6.16-.009 12.317 0 2.963.003 5.924-.005c2.756-.005 5.511.003 8.267.014l2.49-.012c5.647.043 5.647.043 7.875 2.271.253 1.92.253 1.92.256 4.319l.02 2.765-.01 3.058.013 3.233c.012 3.6.01 7.2.008 10.8q.009 3.86.021 7.717.023 8.33.028 16.661c.006 8.05.024 16.099.046 24.148q.053 19.628.087 39.254c0 .784.002 1.567.004 2.375l.063 37.986q.035 19.524.088 39.047.034 12.026.042 24.05.01 9.249.038 18.498.01 3.771.007 7.543c-.01 29.89 1.24 65.323 23.035 88.484 14.555 13.318 34.018 17.633 53.213 17.453 2.04-.016 4.08 0 6.12.02 19.482.03 37.263-4.991 51.878-18.177 23.19-24.078 22.503-64.28 22.46-95.22q.01-3.876.026-7.75.028-8.253.03-16.504c.001-7.954.02-15.908.045-23.862q.056-19.37.081-38.743.025-18.784.063-37.57l.005-2.348q.027-12.687.059-25.373l.005-2.249.023-8.895q.034-13.012.05-26.026.01-9.09.032-18.18.006-3.735.008-7.472.005-5.076.018-10.15l-.003-3.027.011-2.723.003-2.368C2702 941 2702 941 2703 940c2.79-.106 5.554-.147 8.344-.145l2.65-.01q4.36-.013 8.721-.013l6.035-.01q6.334-.009 12.668-.007c5.422 0 10.844-.014 16.266-.031q6.235-.015 12.47-.013 2.998 0 5.998-.013c2.792-.01 5.583-.007 8.375 0l2.524-.018c5.721.032 5.721.032 7.95 2.26.25 1.878.25 1.878.251 4.216l.016 2.695-.014 2.98.01 3.153c.008 3.51.001 7.02-.005 10.53l.01 7.525q.012 9.189.002 18.378-.007 7.489-.003 14.977v2.153l.003 4.333c.006 13.569-.001 27.138-.012 40.707q-.013 17.385.002 34.77a32322 32322 0 0 1 .006 46.94q-.002 7.442.006 14.884.008 10.092-.01 20.184-.004 3.672.003 7.343c.082 49.438-5.042 105.029-40.266 143.232l-1.596 1.741c-30.412 32.803-72.747 44.965-116.404 47.26-49.093 1.548-101.152-5.658-138.574-40.259-33.69-32.072-45.697-79.507-47.426-124.742-.186-8.603-.147-17.21-.145-25.814l-.01-7.77q-.011-9.403-.012-18.807 0-7.64-.005-15.278-.015-21.683-.013-43.365v-4.71q-.002-18.965-.023-37.928-.021-19.497-.02-38.994.001-10.938-.014-21.874-.015-10.263-.002-20.525 0-3.774-.008-7.549-.009-5.13.005-10.262l-.016-3.052.014-2.76v-2.394c.618-4.75 4.186-4.16 8.124-4.189" data-color="2"></path>
        <path fill="#000000" d="m2021.113 939.748 3.302-.016 3.657.014 3.861-.01c3.55-.008 7.098-.004 10.647.002 3.823.005 7.646-.002 11.469-.008q11.24-.012 22.48 0 9.132.005 18.264.002h2.62l5.272-.003c16.493-.006 32.986.001 49.48.012q21.246.013 42.493-.002a48103 48103 0 0 1 54.55-.007l2.61.001q9.125.002 18.25-.006a10120 10120 0 0 1 22.229.007q5.675.009 11.35 0c4.094-.007 8.187.002 12.281.012l3.657-.014 3.302.016 2.866.001c2.247.25 2.247.25 4.247 2.25.328 2.632.328 2.632.433 6.017l.127 3.837c.138 5.853.236 11.707.305 17.562q.06 4.608.225 9.214c1.06 30.322 1.06 30.322-8.922 41.28a156 156 0 0 1-3.55 3.502c-2.31 2.269-4.168 4.808-6.071 7.42l-1.92 2.518a2814 2814 0 0 0-16.17 21.385c-3.395 4.527-6.837 9.018-10.27 13.516A2363 2363 0 0 0 2270 1087c-5.24 7.01-10.544 13.968-15.854 20.924a2503 2503 0 0 0-14.021 18.576 1545 1545 0 0 1-14.399 18.96 2665 2665 0 0 0-25.257 33.258c-4.166 5.555-8.395 11.062-12.606 16.582a1752 1752 0 0 0-10.363 13.7c-4.068 5.444-8.19 10.847-12.313 16.25a2548 2548 0 0 0-15.593 20.631c-4.978 6.653-10.024 13.254-15.077 19.851l-1.95 2.553-1.721 2.246a331 331 0 0 0-4.462 6.123l-1.355 1.901-1.03 1.445 3.34-.003q40.158-.033 80.315-.05 19.42-.005 38.84-.023 16.92-.015 33.839-.018 8.964-.002 17.93-.012 8.426-.01 16.854-.007 3.102 0 6.205-.007 4.216-.005 8.433 0l2.515-.01c5.616.016 5.616.016 6.73 1.13.775 8.52-.685 17.151-1.715 25.597l-.53 4.457q-.555 4.635-1.118 9.27-.722 5.952-1.426 11.905-.545 4.584-1.099 9.169l-.525 4.393q-.364 3.053-.74 6.103l-.423 3.51C2331 1358 2331 1358 2330 1359c-2.85.11-5.677.155-8.528.158l-2.748.015q-4.6.021-9.2.032l-6.577.03q-9.002.04-18.003.068-9.533.035-19.064.076-16.14.066-32.281.123-16.32.058-32.638.125l-3.992.017-7.955.033a63306 63306 0 0 1-84.478.29q-11.942.036-23.884.083-13.543.053-27.086.083-6.71.013-13.42.043-6.067.029-12.133.03-2.18.005-4.36.018c-1.95.013-3.901.012-5.852.01l-3.276.01C2012 1360 2012 1360 2010 1358c-.348-2.605-.348-2.605-.481-5.953l-.156-3.798c-.181-5.814-.3-11.629-.393-17.445-.053-3.047-.15-6.087-.287-9.132-.76-17.2-.868-30.585 11.155-44.243a241 241 0 0 1 4.196-4.366c2.977-3.124 5.455-6.564 7.966-10.063q1.44-1.935 2.89-3.864l1.502-2.002c6.519-8.655 13.116-17.25 19.69-25.862 7.15-9.37 14.29-18.744 21.347-28.185 4.767-6.368 9.597-12.688 14.425-19.011a2503 2503 0 0 0 14.02-18.576 1554 1554 0 0 1 14.411-18.977A2678 2678 0 0 0 2145 1114c7.951-10.634 16.026-21.174 24.082-31.728 7.143-9.36 14.278-18.724 21.325-28.156 4.978-6.652 10.023-13.253 15.075-19.849l1.951-2.552 1.72-2.247a331 331 0 0 0 4.462-6.123l1.356-1.9L2216 1020l-3.118.005q-37.505.068-75.009.098-18.136.014-36.273.048-15.803.03-31.605.037-8.373.002-16.744.023-7.873.02-15.745.015-2.896 0-5.793.012-3.94.013-7.88.002l-2.34.018c-5.265-.03-5.265-.03-7.493-2.258a81 81 0 0 1-.259-7.172l-.01-2.238c-.01-2.447-.004-4.893.003-7.34q-.001-2.545-.006-5.09-.004-5.335.011-10.672c.012-4.567.005-9.133-.007-13.7q-.009-5.256 0-10.51.003-2.527-.005-5.053c-.005-2.351.003-4.702.014-7.053l-.012-2.123c.053-6.083 1.44-7.299 7.384-7.301" data-color="2"></path>
        <path fill="#000000" d="m1797.875 939.729 2.49.012 2.622-.01c2.87-.01 5.738-.003 8.607.003q2.982-.001 5.963-.005 6.255-.004 12.51.01c5.353.012 10.706.005 16.06-.007q6.16-.009 12.317 0 2.963.003 5.924-.005c2.756-.005 5.511.003 8.267.014l2.49-.012c5.647.043 5.647.043 7.875 2.271.25 2.915.25 2.915.25 6.74l.007 2.135c.006 2.384-.002 4.768-.01 7.152l.008 5.15c.006 4.737 0 9.474-.008 14.21-.006 5.101-.002 10.202.002 15.303q.006 15-.01 30c-.01 11.632-.01 23.265-.01 34.897q0 31.122-.023 62.243-.021 30.236-.02 60.47v7.518q0 34.37-.014 68.74-.004 12.177-.005 24.356 0 14.829-.014 29.658-.008 7.574-.007 15.148.003 6.92-.01 13.843v5.03q.003 3.397-.007 6.793l-.002 3.825C1883 1358 1883 1358 1882 1359c-2.105.161-4.217.251-6.328.315l-2.05.064q-3.435.099-6.872.183l-2.39.062c-14.81.375-29.624.508-44.44.551q-3.612.012-7.224.032c-3.403.018-6.805.022-10.207.023l-3.127.021-2.857-.009-2.501.004C1792 1360 1792 1360 1790 1358c-.25-2.913-.25-2.913-.251-6.737l-.01-2.134c-.007-2.383 0-4.766.007-7.149q-.003-2.574-.01-5.149c-.007-4.734-.003-9.469.003-14.204.004-5.099-.003-10.197-.008-15.296q-.012-14.994-.001-29.989.006-12.18.003-24.362l-.001-3.496-.002-7.03q-.007-32.997.011-65.994.014-28.342-.001-56.685a85576 85576 0 0 1-.007-72.755v-3.482q.003-12.172-.005-24.346-.009-14.826.006-29.65.01-7.572.001-15.142-.009-6.921.008-13.842.003-2.512-.004-5.026c-.006-2.265 0-4.53.01-6.795v-3.823c.473-5.488 3.288-5.149 8.126-5.185" data-color="2"></path>
    </g>
</svg>